# xmcd
#
# Track frame offsets:
#	150
#	23633
#	44293
#	56486
#	91035
#	116129
#	132169
#	160836
#	179692
#	205973
#	226188
#	259334
#	284684
#	307958
#
# Disc length: 4356 seconds
#
# Revision: 0
# Processed by: cddbd v1.4PL0 Copyright (c) Steve Scherf et al.
# Submitted via: dBpowerAMP V4.0
#
DISCID=c111020e
DTITLE=Supertramp - The very best of
DYEAR=1900
DGENRE=New Age
TTITLE0=Ain't nobody but me
TTITLE1=bloody well night
TTITLE2=Breakfast in america
TTITLE3=Cannonball
TTITLE4=Crime of the century
TTITLE5=Dreamer
TTITLE6=From now on
TTITLE7=Give a little bit
TTITLE8=Goodbye stanger
TTITLE9=It's raining again
TTITLE10=Rudy
TTITLE11=School
TTITLE12=Take the long way home
TTITLE13=The logical song
EXTD=
EXTT0=
EXTT1=
EXTT2=
EXTT3=
EXTT4=
EXTT5=
EXTT6=
EXTT7=
EXTT8=
EXTT9=
EXTT10=
EXTT11=
EXTT12=
EXTT13=
PLAYORDER=
